<svg xmlns="http://www.w3.org/2000/svg" viewBox="0 0 100 100" width="100" height="100">
  <!--
    Icon for Online-Everything-Tool
    Container: Square (implied by viewBox)
    Element: Cloud, Blue (#4A90E2)
    Content: Simplified Utility Knife, Green (#2ECC71)
  -->
  <defs>
    <style>
      .cloud-fill { fill: #4A90E2; }
      /* Style for the knife elements */
      .knife-fill {
        fill: #2ECC71;
        stroke: #2ECC71; /* Add stroke for thinner elements */
        stroke-width: 1.5; /* Adjust stroke width as needed */
        stroke-linecap: round;
        stroke-linejoin: round;
      }
      .knife-body {
        fill: #2ECC71;
      }
    </style>
  </defs>

  <!-- Cloud path (unchanged) -->
  <g transform="translate(7.5, 25) scale(1.06)">
    <path class="cloud-fill" d="M 56.7,16.9 C 54.8,10.2 48.8,5 41.5,5 c -5.9,0 -11.1,3.1 -14.1,7.7 C 24.7,12.3 20.9,12 17.5,12 c -6.9,0 -12.5,5.6 -12.5,12.5 c 0,1.1 0.2,2.2 0.5,3.2 C 2.2,30.3 0,34.6 0,39.5 C 0,46.4 5.6,52 12.5,52 h 55 C 74.4,52 80,46.4 80,39.5 c 0,-5.7 -3.8,-10.6 -9.1,-12.4 C 70.1,22.1 64.3,18.4 56.7,16.9 z"/>
  </g>

  <!-- NEW: Group for Utility Knife -->
  <!-- Centered around X=50, Y=55-60. Scaled down slightly. -->
  <g transform="translate(25, 50) scale(0.5)">
    <!-- Main Body (adjust width/height/rx/ry for shape) -->
    <rect x="10" y="10" width="60" height="30" rx="5" ry="5" class="knife-body"/>

    <!-- Simplified Tools/Blades using paths (lines) -->
    <!-- Blade 1 -->
    <path d="M 15 10 L 15 0 L 25 0 L 25 10" class="knife-fill" fill="none"/>
    <!-- Tool 2 (e.g., screwdriver) -->
    <path d="M 35 10 L 35 2 L 40 2 L 40 10" class="knife-fill" fill="none"/>
    <!-- Tool 3 (e.g., corkscrew simplified) -->
    <path d="M 55 10 L 55 5 Q 60 0 65 5 L 65 10" class="knife-fill" fill="none"/>

    <!-- Optional: Small circle/pin detail on body -->
    <circle cx="60" cy="25" r="3" class="knife-fill" stroke="none"/>
  </g>

</svg>